<svg preserveAspectRatio="xMidYMid meet" width="100%" height="100%" overflow="visible" style="display: block;" viewBox="0 0 18.75 25" fill="none" xmlns="http://www.w3.org/2000/svg">
<g id="image 18 [Vectorized]" clip-path="url(#clip0_0_4)">
<path id="Vector" d="M8.83725 0.0673377C13.5485 -0.335099 17.6997 3.14433 18.1267 7.85339C18.5537 12.5625 15.0959 16.7318 10.3891 17.1833C5.64743 17.6381 1.44059 14.1492 1.01051 9.40528C0.580357 4.66139 4.09109 0.472741 8.83725 0.0673377ZM10.2416 14.5243C13.523 14.1417 15.8641 11.1586 15.4557 7.88033C15.0473 4.60205 12.0459 2.28448 8.77088 2.7187C5.53218 3.14807 3.24578 6.10911 3.6497 9.35109C4.05362 12.5931 6.99654 14.9027 10.2416 14.5243Z" fill="var(--fill-0, #18181B)"/>
<path id="Vector_2" d="M2.25086 17.2303C4.56358 18.2128 7.19909 19.6634 9.54845 20.7514C11.9223 19.7121 14.4754 18.3453 16.8597 17.2232C17.2387 17.857 17.8064 19.0505 18.1623 19.7462C17.7695 19.927 17.3784 20.1126 16.9894 20.3031C15.0161 21.1364 13.0275 22.2906 11.0422 23.1501C8.9561 24.0533 7.45761 22.8709 5.55817 21.9511C4.03765 21.2055 2.50983 20.4779 0.974846 19.7684C1.31782 19.0639 1.8618 17.8551 2.25086 17.2303Z" fill="var(--fill-0, #18181B)"/>
</g>
<defs>
<clipPath id="clip0_0_4">
<rect width="18.75" height="25" fill="white"/>
</clipPath>
</defs>
</svg>
